<svg width="64" height="46" viewBox="0 0 64 46" fill="none" xmlns="http://www.w3.org/2000/svg">
<path fill-rule="evenodd" clip-rule="evenodd" d="M36.772 18.667C36.4962 17.887 35.9853 17.2117 35.3098 16.7341C34.6343 16.2565 33.8273 16 33 16V15H31V16C29.9391 16 28.9217 16.4214 28.1716 17.1716C27.4214 17.9217 27 18.9391 27 20C27 21.0609 27.4214 22.0783 28.1716 22.8284C28.9217 23.5786 29.9391 24 31 24V28C30.13 28 29.389 27.445 29.113 26.667C29.0721 26.5397 29.006 26.4219 28.9187 26.3206C28.8315 26.2193 28.7248 26.1365 28.605 26.0772C28.4851 26.0178 28.3546 25.9831 28.2212 25.9751C28.0877 25.967 27.954 25.9858 27.8279 26.0304C27.7018 26.0749 27.586 26.1443 27.4872 26.2344C27.3884 26.3245 27.3087 26.4335 27.2527 26.5549C27.1968 26.6764 27.1658 26.8078 27.1616 26.9415C27.1573 27.0751 27.1799 27.2082 27.228 27.333C27.5038 28.113 28.0147 28.7883 28.6902 29.2659C29.3657 29.7435 30.1727 30 31 30V31H33V30C34.0609 30 35.0783 29.5786 35.8284 28.8284C36.5786 28.0783 37 27.0609 37 26C37 24.9391 36.5786 23.9217 35.8284 23.1716C35.0783 22.4214 34.0609 22 33 22V18C33.4136 17.9999 33.8171 18.128 34.1549 18.3668C34.4926 18.6055 34.7481 18.9431 34.886 19.333C34.9743 19.5831 35.1584 19.7879 35.3977 19.9023C35.5162 19.9589 35.6446 19.9917 35.7758 19.9987C35.9069 20.0056 36.0382 19.9867 36.162 19.943C36.2858 19.8993 36.3998 19.8316 36.4975 19.7438C36.5952 19.656 36.6746 19.5498 36.7313 19.4313C36.7879 19.3128 36.8207 19.1844 36.8277 19.0532C36.8346 18.9221 36.8157 18.7908 36.772 18.667V18.667ZM31 18C30.4696 18 29.9609 18.2107 29.5858 18.5858C29.2107 18.9609 29 19.4696 29 20C29 20.5304 29.2107 21.0391 29.5858 21.4142C29.9609 21.7893 30.4696 22 31 22V18ZM33 28C33.5304 28 34.0391 27.7893 34.4142 27.4142C34.7893 27.0391 35 26.5304 35 26C35 25.4696 34.7893 24.9609 34.4142 24.5858C34.0391 24.2107 33.5304 24 33 24V28Z" fill="#022B69"/>
<path fill-rule="evenodd" clip-rule="evenodd" d="M21.153 2.621C23.607 1.42 27.633 0 32.039 0C36.353 0 40.273 1.361 42.714 2.546L42.852 2.613C43.588 2.977 44.182 3.321 44.6 3.6L40.906 9C49.422 17.706 56 35.997 32.039 35.997C8.07798 35.997 14.479 18.038 23.069 9L19.399 3.6C19.682 3.415 20.041 3.2 20.469 2.972C20.681 2.858 20.909 2.741 21.153 2.622V2.621ZM38.532 8.928L41.489 4.605C38.739 4.803 35.467 5.449 32.317 6.361C30.067 7.011 27.567 6.912 25.252 6.485C24.6686 6.37685 24.0892 6.2481 23.515 6.099L25.435 8.926C29.55 10.391 34.416 10.391 38.532 8.928V8.928ZM24.28 10.63C29.095 12.49 34.882 12.49 39.697 10.628C41.7068 12.7467 43.3882 15.1544 44.685 17.771C46.037 20.529 46.773 23.286 46.653 25.662C46.537 27.955 45.635 29.914 43.575 31.37C41.428 32.887 37.817 33.997 32.038 33.997C26.253 33.997 22.625 32.906 20.458 31.406C18.383 29.968 17.472 28.036 17.343 25.774C17.208 23.424 17.928 20.681 19.275 17.904C20.56 15.256 22.353 12.707 24.28 10.63V10.63ZM23.13 3.916C23.93 4.154 24.766 4.361 25.614 4.518C27.764 4.914 29.92 4.972 31.76 4.439C33.9042 3.81434 36.085 3.32307 38.29 2.968C36.45 2.414 34.298 2 32.038 2C28.593 2 25.38 2.961 23.13 3.916V3.916Z" fill="#022B69"/>
</svg>
