<svg width="152" height="476" viewBox="0 0 152 476" fill="none" xmlns="http://www.w3.org/2000/svg">
<path d="M152 457.127C152.226 480.052 2.84569 482.152 0.00025695 457.128C-0.226083 434.205 149.154 432.105 152 457.127Z" fill="#E6E6E6"/>
<path d="M35.1259 377.544L24.0239 383.4L31.0889 405.848L42.1899 406.824L48.2459 394.136L35.1259 377.544Z" fill="#9F616A"/>
<path d="M69.4399 422.44V433.175L86.5969 432.199L86.3579 423.358L69.4399 422.44Z" fill="#9F616A"/>
<path d="M31.0889 248.711L37.1439 321.912L56.3198 429.271L86.5969 425.367L76.5048 340.455L80.5419 262.376L31.0889 248.711Z" fill="#2F2E41"/>
<path d="M111.828 194.056L39.1624 195.032L31.0884 248.712L80.5414 271.16L92.6523 314.104L31.0884 377.544L55.3103 406.824C55.3103 406.824 89.6247 361.928 114.856 336.552C140.087 311.176 127.976 234.072 127.976 234.072L111.828 194.056Z" fill="#2F2E41"/>
<path d="M68.4307 55.4641C80.6932 55.4641 90.634 45.8508 90.634 33.9922C90.634 22.1336 80.6932 12.5202 68.4307 12.5202C56.1681 12.5202 46.2273 22.1336 46.2273 33.9922C46.2273 45.8508 56.1681 55.4641 68.4307 55.4641Z" fill="#9F616A"/>
<path d="M60.3567 48.6326V70.1045L75.4954 93.5284C75.4954 93.5284 98.708 76.9365 93.6617 73.0325C88.6155 69.1285 87.6063 38.8726 87.6063 38.8726L60.3567 48.6326Z" fill="#9F616A"/>
<path d="M60.3568 66.2004L45.2178 83.768L51.2738 205.767L98.7078 204.792L106.782 98.4084L96.6898 71.0802L89.7668 61.9715L77.5138 79.864L60.3568 66.2004Z" fill="#D0CDE1"/>
<path d="M36.1346 129.64L25.033 170.632L36.1346 211.624L17.9683 235.048L1.82031 160.872C1.82031 160.872 13.9314 100.36 14.9406 93.5282C15.9497 86.6962 17.9683 85.7202 17.9683 85.7202L26.0422 86.6962L36.1346 129.64Z" fill="#2F2E41"/>
<path d="M116.874 145.255L123.939 157.944L125.958 179.416L121.921 203.815L136.05 226.264L150.179 164.775L135.041 85.7192H128.985L116.874 145.255Z" fill="#2F2E41"/>
<path d="M31.0885 376.568C31.0885 376.568 16.9591 380.472 11.9129 381.448C6.86659 382.424 14.9406 400.968 14.9406 400.968C14.9406 400.968 19.9868 426.344 20.9961 431.224C22.0053 436.104 29.07 452.696 38.1532 454.648C47.2364 456.6 41.181 420.488 41.181 420.488C41.181 420.488 45.218 408.776 45.218 404.872C45.218 400.968 39.1625 402.92 39.1625 402.92C23.0146 400.968 31.0885 376.568 31.0885 376.568Z" fill="#2F2E41"/>
<path d="M64.3937 451.719C65.403 457.575 63.3844 457.575 79.5324 459.527C95.6803 461.479 91.6434 448.791 91.6434 448.791C90.9682 442.81 89.6144 436.919 87.6064 431.223C84.5786 423.415 68.4307 433.175 68.4307 433.175C68.4307 433.175 63.3845 445.863 64.3937 451.719Z" fill="#2F2E41"/>
<path d="M87.6327 39.5541L88.1587 48.234C88.1587 48.234 94.6711 33.9925 95.6804 19.3525C96.6896 4.71254 79.5324 1.78454 69.44 0.808541C59.3476 -0.167453 42.1904 6.66452 42.1904 14.4725C42.1904 22.2805 60.3568 20.3285 67.4215 18.3765C74.4862 16.4245 77.514 33.0165 77.514 33.0165L81.551 33.9925L87.6327 39.5541Z" fill="#2F2E41"/>
<path d="M54.3999 73.112L60.3569 66.2004L77.5139 79.864L60.3569 91.5761L54.3999 73.112Z" fill="#D0CDE1"/>
<path d="M96.6897 71.0802L89.6247 62.2964L77.5137 79.8639L92.6526 90.6002L96.6897 71.0802Z" fill="#D0CDE1"/>
<path d="M33.1069 143.305L37.1439 180.393L29.07 202.841L24.0237 224.312C24.0237 224.312 24.0238 244.808 44.2087 245.784C64.3935 246.76 81.5507 184.297 81.5507 184.297C81.5507 184.297 84.5784 197.96 86.5969 205.768C88.6154 213.576 122.93 244.808 122.93 244.808C122.93 244.808 131.004 243.832 138.068 228.216C145.133 212.601 123.939 197.961 123.939 197.961L117.883 177.465L119.902 152.089L134.031 85.7207L92.1478 64.7367L96.6894 120.857L81.5507 164.777L58.8427 67.6647L51.2734 73.0327L18.9775 85.7207L33.1069 143.305Z" fill="#2F2E41"/>
</svg>
