<svg width="45" height="43" viewBox="0 0 45 43" fill="none" xmlns="http://www.w3.org/2000/svg">
<path d="M21.9376 13.4051C21.4998 13.4051 21.1632 13.2654 20.9245 12.9855C20.6858 12.7055 20.5692 12.298 20.5692 11.7595H18.1971C18.1971 12.7336 18.471 13.5168 19.0188 14.1113C19.5655 14.7059 20.3525 15.0567 21.3755 15.1651V16.5891H22.4915V15.1722C23.3737 15.0919 24.065 14.7938 24.5754 14.2895C25.0891 13.778 25.3432 13.1262 25.3432 12.3221C25.3432 11.848 25.2629 11.4399 25.1023 11.0978C24.9417 10.764 24.7239 10.4676 24.439 10.2146C24.1563 9.961 23.8225 9.73385 23.4336 9.5342C23.0525 9.33675 22.64 9.1415 22.1972 8.95615C21.7589 8.77025 21.4476 8.575 21.2463 8.37095C21.0488 8.1669 20.9504 7.89025 20.9504 7.5421C20.9504 7.19945 21.0356 6.9327 21.2072 6.73525C21.3794 6.54055 21.6197 6.4421 21.9305 6.4421C22.2775 6.4421 22.5454 6.57465 22.734 6.8381C22.9221 7.10155 23.0156 7.4761 23.0156 7.9711H25.3993C25.3993 7.07845 25.1535 6.3387 24.6612 5.75955C24.1684 5.17985 23.4947 4.82785 22.6328 4.69915V3.18335H21.5141V4.67C20.6215 4.7503 19.9026 5.0506 19.3713 5.5687C18.8329 6.0846 18.5678 6.73745 18.5678 7.5311C18.5678 8.00135 18.6426 8.41165 18.7927 8.74055C18.9418 9.07275 19.159 9.37085 19.4412 9.62275C19.7244 9.87575 20.0599 10.0996 20.4499 10.2921C20.8398 10.4868 21.2633 10.6749 21.7237 10.863C22.1851 11.0511 22.5091 11.2507 22.6917 11.4614C22.8754 11.677 22.9667 11.9652 22.9667 12.3365C22.9667 12.6703 22.8754 12.9326 22.6917 13.1273C22.5085 13.3094 22.2566 13.4051 21.9376 13.4051ZM44.2363 29.09C43.8419 28.0929 42.9432 27.1975 41.6496 26.8537C41.5589 25.9528 41.1315 25.1091 40.411 24.4936C39.2907 23.5284 37.6764 23.2699 35.9549 23.7929L35.7927 23.8502C35.5518 23.1621 35.1019 22.5527 34.4749 22.105C33.3633 21.3036 31.88 21.1249 30.28 21.6095L21.5757 24.6037C19.3488 23.5724 17.2384 22.6055 14.577 22.6055C11.1543 22.6055 6.81979 24.712 0.939737 28.1116C0.544837 28.3398 0.410087 28.8441 0.637787 29.2385C0.866037 29.6334 1.37039 29.7681 1.76474 29.5399C7.25319 26.3675 11.5333 24.2577 14.577 24.2577C16.9029 24.2577 18.7773 25.1272 20.9482 26.1283C22.7016 26.9422 24.6953 27.8646 27.2616 28.4982C28.7851 28.8705 29.3819 30.0679 29.1982 31.0684C29.0183 32.0127 28.0723 32.913 25.9636 32.6243C24.2207 32.3834 22.9298 32.3361 21.7952 32.2921C19.9802 32.2261 18.548 32.1738 15.9905 31.3939C15.5582 31.2614 15.0929 31.5061 14.9603 31.9423C14.8278 32.3773 15.0731 32.8388 15.5092 32.9714C18.2708 33.8145 19.8751 33.8734 21.7314 33.941C22.8886 33.9823 24.0766 34.0257 25.7326 34.2561C26.0747 34.3035 26.3987 34.326 26.7067 34.3255C29.1014 34.3255 30.472 32.9675 30.7976 31.4566L39.2698 28.5395C41.1035 27.9812 42.3069 28.7154 42.6957 29.6961C43.0323 30.5513 42.7969 31.8598 41.0111 32.7332L38.3463 34.0449C28.6867 38.8002 24.2751 40.9744 21.8342 40.9744C19.9257 40.9744 16.9832 39.3315 14.6166 38.0099C12.13 36.6228 10.6681 35.844 9.65119 35.9832C8.19919 36.1877 4.67039 37.764 4.27714 37.9428C3.85969 38.1304 3.67104 38.6187 3.86299 39.0312C4.05164 39.4492 4.53894 39.6346 4.95144 39.4454C5.97114 38.9851 8.84984 37.7607 9.88494 37.6156C10.3898 37.5353 12.3753 38.6375 13.8152 39.4416C16.48 40.9282 19.5006 42.6156 21.8364 42.6156C24.6667 42.6156 28.8836 40.5382 39.0811 35.5173L41.7453 34.2083C44.3424 32.94 44.8561 30.6646 44.2363 29.09ZM27.2556 26.786C25.9609 26.4445 24.8268 26.0309 23.7834 25.5904L30.7965 23.1781C31.8624 22.8491 32.8249 22.9492 33.5195 23.4415C33.8545 23.6851 34.0987 24.0163 34.2263 24.3848L27.2556 26.786ZM38.766 26.972L30.7376 29.7335C30.5429 29.0091 30.1073 28.3167 29.4468 27.7739L36.4565 25.3621C37.5939 25.0162 38.6439 25.1548 39.3281 25.7433C39.6377 26.0067 39.8511 26.3515 39.9496 26.7332C39.5783 26.7723 39.184 26.846 38.766 26.972ZM21.7957 19.382C27.0323 19.382 31.2948 15.1211 31.2948 9.8829C31.2948 4.64635 27.0383 0.384399 21.7957 0.384399C16.5592 0.384399 12.2967 4.64525 12.2967 9.8829C12.2972 15.1211 16.5597 19.382 21.7957 19.382ZM21.7957 2.0344C26.1237 2.0344 29.6448 5.5544 29.6448 9.88345C29.6448 14.2064 26.127 17.7325 21.7957 17.7325C17.4683 17.7325 13.9467 14.2119 13.9467 9.88345C13.9472 5.55495 17.4683 2.0344 21.7957 2.0344Z" fill="#022B69"/>
</svg>
