<svg width="50" height="36" viewBox="0 0 50 36" fill="none" xmlns="http://www.w3.org/2000/svg">
<path d="M36.4401 15.7639H37.9481C38.6761 15.7639 39.2481 16.3359 39.2481 17.0639H40.9641C40.9641 15.4519 39.6641 14.0999 38.0521 14.0479V12.1759H36.3361V14.0479C34.7241 14.0999 33.4241 15.3999 33.4241 17.0639C33.4241 18.7279 34.7761 20.0799 36.4401 20.0799H37.9481C38.6761 20.0799 39.2481 20.6519 39.2481 21.3799C39.2481 22.1079 38.6761 22.6799 37.9481 22.6799H36.4401C35.7121 22.6799 35.1401 22.1079 35.1401 21.3799H33.4241C33.4241 22.9919 34.7241 24.3439 36.3361 24.3959V26.2679H38.0521V24.3959C39.6641 24.3439 40.9641 23.0439 40.9641 21.3799C40.9641 19.7159 39.6121 18.3639 37.9481 18.3639H36.4401C35.7121 18.3639 35.1401 17.7919 35.1401 17.0639C35.1401 16.3359 35.7121 15.7639 36.4401 15.7639Z" fill="white"/>
<path d="M49.5958 23.252C48.7118 17.324 46.7358 9.88797 42.3158 6.87197L44.1358 5.10397C44.8638 4.42797 45.0718 3.38797 44.7078 2.45197C44.3438 1.51597 43.4598 0.94397 42.4718 0.94397H31.9158C30.9278 0.94397 30.0438 1.51597 29.6798 2.45197C29.3158 3.38797 29.5238 4.37597 30.2518 5.10397L32.0718 6.87197C29.8878 8.37997 28.3278 10.928 27.1838 13.84C25.7278 13.164 23.6478 12.8 21.6198 12.8C17.8238 12.8 13.9758 14.048 13.9758 16.388V21.64C12.5198 20.808 10.2318 20.392 7.99581 20.392C4.19981 20.392 0.351807 21.64 0.351807 23.98V31.52C0.351807 33.86 4.19981 35.108 7.99581 35.108C10.7518 35.108 13.4558 34.484 14.8078 33.236C16.1598 34.484 18.9158 35.108 21.6198 35.108C25.4158 35.108 29.2638 33.86 29.2638 31.52V30.948C29.7838 31.156 30.3038 31.312 30.8238 31.364C32.8518 31.676 34.9838 31.78 37.1678 31.78C39.3518 31.78 41.5358 31.624 43.5118 31.364C45.4358 31.104 47.0998 30.116 48.2438 28.556C49.4398 26.996 49.9078 25.124 49.5958 23.252ZM31.3958 3.85597C31.0838 3.54397 31.1878 3.17997 31.2398 3.07597C31.2918 2.97197 31.4478 2.60797 31.9158 2.60797H42.5238C42.9918 2.60797 43.1478 2.97197 43.1998 3.07597C43.2518 3.17997 43.3558 3.54397 43.0438 3.85597L40.5478 6.29997C38.4158 7.02797 36.0758 7.02797 33.9438 6.29997L31.3958 3.85597ZM15.6398 26.216C17.0958 27.048 19.3838 27.464 21.6198 27.464C23.8558 27.464 26.0918 27.048 27.5998 26.216V27.672C27.5998 28.348 25.3118 29.544 21.6198 29.544C17.9278 29.544 15.6398 28.348 15.6398 27.724V26.216ZM21.6198 25.8C17.8758 25.8 15.6398 24.604 15.6398 23.928V22.472C17.0958 23.304 19.3838 23.72 21.6198 23.72C23.8558 23.72 26.0918 23.304 27.5998 22.472V23.928C27.5998 24.604 25.3118 25.8 21.6198 25.8ZM21.6198 14.464C25.3118 14.464 27.5998 15.66 27.5998 16.336C27.5998 17.012 25.3118 18.208 21.6198 18.208C17.9278 18.208 15.6398 17.012 15.6398 16.388C15.6398 15.764 17.8758 14.464 21.6198 14.464ZM15.6398 18.676C17.0958 19.508 19.3838 19.924 21.6198 19.924C23.8558 19.924 26.0918 19.508 27.5998 18.676V20.132C27.5998 20.808 25.3118 22.004 21.6198 22.004C17.9278 22.004 15.6398 20.808 15.6398 20.132V18.676ZM7.94381 22.056C11.6358 22.056 13.9238 23.252 13.9238 23.928C13.9238 24.604 11.6358 25.8 7.94381 25.8C4.25181 25.8 2.01581 24.604 2.01581 23.928C2.01581 23.252 4.25181 22.056 7.94381 22.056ZM2.01581 26.216C3.47181 27.048 5.75981 27.464 7.99581 27.464C10.2318 27.464 12.4678 27.048 13.9758 26.216V27.672C13.9758 28.348 11.6878 29.544 7.99581 29.544C4.30381 29.544 2.01581 28.348 2.01581 27.724V26.216ZM7.94381 33.34C4.25181 33.34 1.96381 32.144 1.96381 31.468V30.012C3.41981 30.844 5.70781 31.26 7.94381 31.26C10.1798 31.26 12.4158 30.844 13.9238 30.012V31.468C13.9238 32.144 11.6878 33.34 7.94381 33.34ZM21.6198 33.34C17.9278 33.34 15.6398 32.144 15.6398 31.468V30.012C17.0958 30.844 19.3838 31.26 21.6198 31.26C23.8558 31.26 26.0918 30.844 27.5998 30.012V31.468C27.5998 32.144 25.3118 33.34 21.6198 33.34ZM46.9438 27.516C46.0598 28.712 44.7598 29.44 43.3038 29.648C39.4558 30.22 34.9318 30.22 31.0838 29.648C30.4598 29.544 29.8358 29.336 29.2638 29.024V16.388C29.2638 15.816 29.0038 15.296 28.5878 14.828C29.7318 11.864 31.2918 9.21197 33.5278 7.96397C34.7238 8.32797 35.9198 8.53597 37.1678 8.53597C38.4158 8.53597 39.6638 8.32797 40.8078 7.96397C45.3318 10.46 47.2038 18.728 47.8798 23.512C48.1398 24.916 47.7758 26.372 46.9438 27.516Z" fill="white"/>
</svg>
