<svg width="245" height="306" viewBox="0 0 245 306" fill="none" xmlns="http://www.w3.org/2000/svg">
<path d="M173.074 107.957V74.9088C173.074 47.2464 150.307 24.48 122.4 24.48C94.4928 24.48 71.7264 47.2464 71.7264 74.9088V107.957C61.2 119.952 54.8352 135.619 54.8352 152.755C54.8352 189.965 84.9456 220.32 122.4 220.32C159.61 220.32 189.965 189.965 189.965 152.755C189.965 135.619 183.6 119.952 173.074 107.957ZM136.109 177.48C136.843 179.928 134.885 182.376 132.192 182.376H112.608C110.16 182.376 108.202 179.928 108.691 177.48L115.546 151.042C110.405 148.349 106.978 142.718 107.467 136.354C108.202 129.01 114.077 123.379 121.421 122.89C129.989 122.4 137.088 129.254 137.088 137.578C137.088 143.453 133.661 148.594 129.01 151.042L136.109 177.48ZM152.755 92.2896C143.698 87.6384 133.171 85.1904 122.4 85.1904C111.629 85.1904 101.102 87.8832 92.0448 92.2896V74.9088C92.0448 66.8304 95.2272 59.2416 101.102 53.3664C106.978 47.4912 114.566 44.3088 122.645 44.3088C130.723 44.3088 138.312 47.4912 144.187 53.3664C150.062 59.2416 153.245 66.8304 153.245 74.9088V92.2896H152.755Z" fill="#022B69"/>
</svg>
