<svg width="17" height="15" viewBox="0 0 17 15" fill="none" xmlns="http://www.w3.org/2000/svg">
<path fill-rule="evenodd" clip-rule="evenodd" d="M3.99003 14.2651C3.02097 14.2651 2.0916 13.9312 1.40637 13.3367C0.72114 12.7422 0.336182 11.9359 0.336182 11.0951C0.336182 9.92774 1.55383 6.22911 3.99003 0H5.81696L3.99003 7.92508C4.95909 7.92508 5.88846 8.25906 6.57369 8.85356C7.25892 9.44805 7.64388 10.2544 7.64388 11.0951C7.64388 11.9359 7.25892 12.7422 6.57369 13.3367C5.88846 13.9312 4.95909 14.2651 3.99003 14.2651ZM13.1247 14.2651C12.1556 14.2651 11.2262 13.9312 10.541 13.3367C9.85576 12.7422 9.47081 11.9359 9.47081 11.0951C9.47081 9.92774 10.6884 6.22911 13.1247 0H14.9516L13.1247 7.92508C14.0937 7.92508 15.0231 8.25906 15.7083 8.85356C16.3935 9.44805 16.7785 10.2544 16.7785 11.0951C16.7785 11.9359 16.3935 12.7422 15.7083 13.3367C15.0231 13.9312 14.0937 14.2651 13.1247 14.2651Z" fill="#0066F5"/>
</svg>
